<?xml version="1.0" encoding="utf-8"?>
<!-- Generator: Adobe Illustrator 21.1.0, SVG Export Plug-In . SVG Version: 6.00 Build 0)  -->
<svg version="1.1" id="Layer_1" xmlns="http://www.w3.org/2000/svg" xmlns:xlink="http://www.w3.org/1999/xlink" x="0px" y="0px"
	 viewBox="0 0 492.4 89.2" style="enable-background:new 0 0 492.4 89.2;" xml:space="preserve">
<style type="text/css">
	.st0{fill:#221F1F;}
	.st1{fill:#A9202F;}
	.st2{fill:#A29366;}
</style>
<g>
	<g>
		<g>
			<g>
				<g>
					<path class="st0" d="M5.5,25.2h2.8l5.6,17.2h-2.5l-1.2-4.1H3.5l-1.3,4.1H0L5.5,25.2z M6.8,27.2L6.8,27.2l-2.7,9.2h5.5L6.8,27.2
						z"/>
					<path class="st0" d="M16.4,42.4V25.2H22c2.4,0,3.2,0.8,3.8,1.8c0.6,0.9,0.7,2,0.7,2.3c0,2.1-0.7,3.6-3,4.1v0.1
						c2.5,0.3,3.5,1.8,3.5,4.1c0,4.4-3.2,4.8-5.2,4.8H16.4z M18.6,32.4h3.2c1.7,0,2.6-1.1,2.6-2.7c0-1.4-0.8-2.6-2.6-2.6h-3.1V32.4z
						 M18.6,40.5h3.1c2.3,0,3.2-1.7,3.2-2.9c0-2.7-1.7-3.2-3.9-3.2h-2.3V40.5z"/>
					<path class="st0" d="M30.7,25.2h2.2v11c0,3.8,1.1,4.7,3.2,4.7c2.1,0,3.2-1,3.2-4.7v-11h2.2v10.9c0,4.8-1.8,6.7-5.4,6.7
						c-3.7,0-5.4-1.9-5.4-6.7V25.2z"/>
					<path class="st0" d="M50.6,25.2h5.3c2.2,0,3.8,0.8,4.6,2.6c0.7,1.5,0.8,4.9,0.8,5.4c0,3.7-0.3,5.8-1.1,6.9
						c-0.9,1.5-2.7,2.2-5.7,2.2h-4V25.2z M52.8,40.5h2.1c3.1,0,4.2-1.1,4.2-5.2v-3.5c0-3.5-1.1-4.8-3.4-4.8h-2.9V40.5z"/>
					<path class="st0" d="M65.3,42.4V25.2h2.2v7.4h6v-7.4h2.2v17.2h-2.2v-7.9h-6v7.9H65.3z"/>
					<path class="st0" d="M83.6,25.2h2.8L92,42.4h-2.5l-1.2-4.1h-6.7l-1.3,4.1h-2.2L83.6,25.2z M85,27.2L85,27.2l-2.7,9.2h5.5
						L85,27.2z"/>
					<path class="st0" d="M94.5,42.4V25.2h5.6c2.4,0,3.2,0.8,3.8,1.8c0.6,0.9,0.7,2,0.7,2.3c0,2.1-0.7,3.6-3,4.1v0.1
						c2.5,0.3,3.5,1.8,3.5,4.1c0,4.4-3.2,4.8-5.2,4.8H94.5z M96.7,32.4h3.2c1.7,0,2.6-1.1,2.6-2.7c0-1.4-0.8-2.6-2.6-2.6h-3.1V32.4z
						 M96.7,40.5h3.1c2.3,0,3.2-1.7,3.2-2.9c0-2.7-1.7-3.2-3.9-3.2h-2.3V40.5z"/>
					<path class="st0" d="M111.4,42.4h-2.2V25.2h2.2V42.4z"/>
					<path class="st0" d="M122.5,37.3v0.5c0,2.3,1.5,3.1,2.9,3.1c1.7,0,3.1-0.7,3.1-2.8c0-3.8-7.7-3.4-7.7-8.6
						c0-3.1,2.2-4.7,5.1-4.7c3.1,0,4.9,1.5,4.8,5h-2.3c0-1.9-0.6-3.1-2.6-3.1c-1.3,0-2.6,0.7-2.6,2.5c0,3.8,7.7,3.2,7.7,8.7
						c0,3.6-2.5,4.8-5.3,4.8c-5.1,0-5.1-3.8-5-5.5H122.5z"/>
					<path class="st0" d="M141.7,29.9c0-1,0-2-0.5-2.5s-1.5-0.7-1.9-0.7c-1.8,0-2.5,1.1-2.6,1.3c-0.1,0.2-0.5,0.6-0.5,3.6v4.6
						c0,4.2,1.4,4.7,3.1,4.7c0.7,0,2.7-0.2,2.7-3.6h2.3c0.1,5.4-3.7,5.4-4.9,5.4c-2.1,0-5.4-0.1-5.4-6.8v-4.9c0-4.9,2.1-6.3,5.5-6.3
						c3.4,0,4.7,1.8,4.5,5.1H141.7z"/>
					<path class="st0" d="M147.5,42.4V25.2h2.2v7.4h6v-7.4h2.2v17.2h-2.2v-7.9h-6v7.9H147.5z"/>
					<path class="st0" d="M161.9,36.1v-5.7c0-3.4,1.8-5.6,5.4-5.6c3.7,0,5.4,2.2,5.4,5.6v5.7c0,4.8-1.8,6.7-5.4,6.7
						C163.6,42.8,161.9,40.9,161.9,36.1z M170.5,36.2v-5.8c0-3.6-2.5-3.7-3.2-3.7c-0.7,0-3.2,0.1-3.2,3.7v5.8c0,3.8,1.1,4.7,3.2,4.7
						C169.4,40.9,170.5,40,170.5,36.2z"/>
					<path class="st0" d="M176.4,36.1v-5.7c0-3.4,1.8-5.6,5.4-5.6c3.7,0,5.4,2.2,5.4,5.6v5.7c0,4.8-1.8,6.7-5.4,6.7
						C178.2,42.8,176.4,40.9,176.4,36.1z M185,36.2v-5.8c0-3.6-2.5-3.7-3.2-3.7c-0.7,0-3.2,0.1-3.2,3.7v5.8c0,3.8,1.1,4.7,3.2,4.7
						C183.9,40.9,185,40,185,36.2z"/>
					<path class="st0" d="M191.1,42.4V25.2h2.2v15.3h6.3v1.9H191.1z"/>
					<path class="st0" d="M1.5,62.8v-5.7c0-3.4,1.8-5.6,5.5-5.6c3.7,0,5.5,2.2,5.5,5.6v5.7c0,4.8-1.8,6.7-5.5,6.7
						C3.3,69.5,1.5,67.6,1.5,62.8z M10.3,62.9v-5.8c0-3.6-2.5-3.7-3.2-3.7c-0.7,0-3.2,0.1-3.2,3.7v5.8c0,3.8,1.1,4.7,3.2,4.7
						C9.2,67.6,10.3,66.7,10.3,62.9z"/>
					<path class="st0" d="M18.3,69.1V51.9H27v1.9h-6.5v5.5h6.1v1.9h-6.1v7.9H18.3z"/>
					<path class="st0" d="M46.9,56.5c0-2-0.9-3.1-3.1-3.1c-0.7,0-3.2,0.1-3.2,3.7v5.8c0,3.8,1.1,4.7,3.2,4.7c1.6,0,2.7-0.4,3.1-0.8
						v-5.2h-3.2v-1.9h5.5v8.4c-1.4,0.8-3.1,1.3-5.4,1.3c-3.7,0-5.5-1.9-5.5-6.7v-5.7c0-3.4,1.8-5.6,5.5-5.6c3.8,0,5.6,1.4,5.5,5
						H46.9z"/>
					<path class="st0" d="M55.3,62.8v-5.7c0-3.4,1.8-5.6,5.5-5.6c3.7,0,5.5,2.2,5.5,5.6v5.7c0,4.8-1.8,6.7-5.5,6.7
						C57.1,69.5,55.3,67.6,55.3,62.8z M64,62.9v-5.8c0-3.6-2.5-3.7-3.2-3.7c-0.7,0-3.2,0.1-3.2,3.7v5.8c0,3.8,1.1,4.7,3.2,4.7
						C62.9,67.6,64,66.7,64,62.9z"/>
					<path class="st0" d="M78.3,69.1h-2.7l-5.1-17.2h2.4L77,67h0l4.1-15.2h2.3L78.3,69.1z"/>
					<path class="st0" d="M87.6,69.1V51.9h9.1v1.9h-6.8v5.5h6.3v1.9h-6.3v6h7v1.9H87.6z"/>
					<path class="st0" d="M103.9,61.2v7.9h-2.2V51.9h6.1c3.1,0,4.2,2.1,4.2,4.3c0,2-1.1,3.6-3.2,3.9v0c2,0.3,2.7,1,2.9,4.4
						c0,0.7,0.3,3.4,0.6,4.5h-2.3c-0.6-1.2-0.5-3.4-0.7-5.7c-0.2-2.1-1.9-2.2-2.7-2.2H103.9z M103.9,59.3h3.4c1.6,0,2.4-1.4,2.4-2.9
						c0-1.2-0.6-2.6-2.4-2.6h-3.4V59.3z"/>
					<path class="st0" d="M129.4,51.9v17.2h-3.1l-6.9-14.9h0v14.9h-2V51.9h3.2l6.8,14.7h0V51.9H129.4z"/>
					<path class="st0" d="M137.5,69.1h-2.1V51.9h3.6l4.4,14.5h0l4.5-14.5h3.7v17.2h-2.2V53.8h0l-4.9,15.3h-2.1l-4.8-15.3h0V69.1z"/>
					<path class="st0" d="M157.6,69.1V51.9h9.1v1.9h-6.8v5.5h6.3v1.9h-6.3v6h7v1.9H157.6z"/>
					<path class="st0" d="M183.9,51.9v17.2h-3.1l-6.9-14.9h0v14.9h-2V51.9h3.2l6.8,14.7h0V51.9H183.9z"/>
					<path class="st0" d="M199.8,51.9v1.9h-4.6v15.3h-2.2V53.8h-4.6v-1.9H199.8z"/>
				</g>
			</g>
		</g>
	</g>
	<g>
		<g>
			<g>
				<path class="st1" d="M258.2,23.4c0.1,0,0.1,0,0.2,0c-0.2,0-0.3,0-0.5,0L258.2,23.4z"/>
				<path class="st1" d="M280.6,84.4l-3.2,0.2l0,0c-0.5,0-0.9-0.1-1.4-0.1c-2.3-0.2-4.6-0.6-6.8-1.1c-2.6-0.6-5.2-1.6-7.4-2.8
					c-0.8-0.5-1.5-1-2.2-1.5c-0.8-0.7-1.6-1.4-2.3-2.2l-0.5-0.6c-0.2-0.2-0.3-0.4-0.5-0.6c-0.3-0.4-0.6-0.8-0.9-1.2
					c-1.6-2.3-2.7-5.1-3.2-7.8c-0.3-1.4-0.4-2.7-0.5-4c0-0.6,0-1.2,0-1.8c0-0.6,0-1.2,0.1-1.7c0.2-2.5,0.7-4.8,1.4-6.9
					c0.1-0.4,0.3-0.8,0.4-1.2c0.3-0.7,0.6-1.5,1-2.3c-0.2,0.5-0.4,0.9-0.6,1.4l0,0c0.3-0.6,0.5-1.2,0.8-1.8c0.6-1.1,1.2-2.2,1.9-3.2
					c0.5-0.8,0.9-1.6,1.4-2.1c0.5-0.6,1.8-2.2,2.3-2.7c0.4-0.5,1-1,1.6-1.6c0.6-0.5,1.4-1.1,2-1.5c1.1-0.8,2-1.4,2.1-1.5
					c0.1-0.1,0.3-0.1,0.4-0.2c0.3-0.1,1.1-0.6,1.3-0.7c0.4-0.2,2.8-1.1,3.8-1.4c1-0.2,2-0.5,2.9-0.6c0.5-0.1,0.9-0.2,1.3-0.2
					c0.1,0,0.2,0,0.3,0c0.1,0,0.4,0,0.5-0.1c0.3-0.1,0.7-0.3,0.6-0.2c0.5-0.3,0.8-0.9,0.9-1.4c0-0.3,0-0.5-0.1-0.8
					c-0.1-0.2-0.2-0.4-0.4-0.6c-0.2-0.2-0.3-0.3-0.5-0.4c-0.1-0.1-0.2-0.2-0.3-0.3c-0.2-0.2-0.4-0.4-0.6-0.5
					c-0.4-0.3-0.7-0.5-0.9-0.6c0.4,0.3-1.1-0.7-1.7-1.1c-1.5-0.9-3-1.6-3.4-1.7c-0.4-0.1-0.5-0.2-0.6-0.3c0,0-0.7-0.3-0.7-0.3
					c-0.4-0.1-2.4-0.7-3.2-0.8l0.1,0c-0.4-0.1-0.8-0.1-1.2-0.2c-0.5-0.1-1-0.1-1.6-0.2c0,0-0.1,0-0.1,0c-1.3-0.1-2.6-0.1-4.2,0
					c-0.2,0-0.6,0.1-1,0.1c-0.4,0.1-0.9,0.2-1.5,0.3c-0.1,0-0.2,0-0.3,0c-0.8,0.2-1.3,0.3-1.5,0.4c-0.3,0.1-0.5,0.2-0.5,0.2
					c0.6-0.1,2.1-0.4,3.9-0.5c0.2,0,0.4,0,0.6,0c0,0,0,0,0,0c0,0,0.1,0,0.1,0c1.5-0.1,3.1-0.1,4.3,0c0.4,0,0.7,0.1,1,0.2
					c0.3,0.1,0.6,0.1,1,0.2c0.6,0.1,0.2,0.1-0.5,0.1c-0.3,0-0.7,0-1.1-0.1c-0.4,0-3.4,0.2-3.4,0.2c-0.6,0-1,0.1-1.4,0.1
					c-0.4,0-0.8,0.1-1.1,0.1c-0.7,0.1-1.5,0.2-2.7,0.5c0,0,0,0-0.1,0c0,0,0,0,0,0c0.5,0,1.3-0.2,2.2-0.3c0.1,0,0.1,0,0.2,0
					c-11.1,1.7-21.1,9.3-23.8,19.9c1.8-4.2,4.6-7.5,7.6-9.9c-0.1,0-0.1,0.1-0.2,0.1c-0.1,0.1-0.3,0.2-0.4,0.4
					c-0.2,0.2-0.5,0.5-0.7,0.7c-1,1-1.7,1.9-2.3,2.8c0,0.1-0.1,0.1-0.1,0.2c-1.8,2.6-3.3,5.4-4.2,7.7c0.3-0.3,1.3-2.5,2-3.5
					c0.4-0.5,0.8-1.2,1.5-2.1c0.7-0.9,1.6-2,2.9-3.4c0.9-0.9,1.8-1.7,2.8-2.5c0.2-0.2,0.5-0.3,0.7-0.5c-2.1,1.7-3.9,3.7-5.4,5.9
					c-1.5,2.2-2.7,4.7-3.5,7.2c-0.4,1.2-0.7,2.5-1,3.8c-0.3,1.3-0.5,2.6-0.6,3.9c-0.3,4.1,0.2,8.2,1.3,12.1c1,3.6,2.7,7,4.9,9.8
					c0.2,0.2,0.3,0.5,0.6,0.7c0.7,1,1.8,2.6,4.1,4.5c1.6,1.3,3.4,2.5,5.4,3.6c2,1,4.2,1.9,6.3,2.5c2.2,0.6,4.4,0.9,6.4,0.9
					c2,0,3.8,0,5.2-0.2c0.5,0,1.1-0.1,1.6-0.2C271.1,88.4,274.9,87.7,280.6,84.4z"/>
			</g>
			<g>
				<path class="st1" d="M228.4,61.3c0.5,2.1,0.2,1.1,1,4.5c-0.2-0.8-0.4-1.6-0.6-2.5c-0.2-0.8-0.3-1.7-0.5-2.5L228.4,61.3z"/>
				<path class="st1" d="M220.2,49.3c0-0.1,0,1.4-0.1-0.7c0-0.5,0-0.4,0.1-0.6c0-0.2,0-0.7,0.1-2.3
					C220.2,46.9,220.2,48.1,220.2,49.3z"/>
				<path class="st1" d="M220.3,53.1c0.1,0.7,0.1,1.4,0.2,2c0,0,0-0.2-0.1-0.5C220.4,54.2,220.3,53.7,220.3,53.1z"/>
				<path class="st1" d="M224.8,39.1l-0.5,1.8c-0.1,0.6-0.2,1.2-0.3,1.8l0.3-1.6C224.3,41,224.5,40.3,224.8,39.1z"/>
				<path class="st1" d="M224.3,41.1c0,0.2,0.1-0.3,0.5-1.7L224.3,41.1z"/>
				<path class="st1" d="M223.6,48.4c0.1-1.1,0-1.7,0.1-2.4c0-0.4,0.1-0.8,0.1-1.4c0-0.6,0.2-1.3,0.4-2.3c0-0.1-0.1,0.1-0.1,0.5
					c-0.1,0.4-0.2,1-0.2,1.6c-0.1,0.7-0.1,1.4-0.2,2.1C223.6,47.2,223.6,47.8,223.6,48.4z"/>
				<path class="st1" d="M227.8,32.1c0.2-0.4,0.5-0.7,0.7-1.1l0.1-0.3C228.3,31.2,228.1,31.6,227.8,32.1z"/>
				<path class="st1" d="M230.3,28.4l-0.8,1c-0.1,0.2-0.2,0.4-0.3,0.6c-0.3,0.4-0.6,1-0.9,1.6c-0.3,0.5-0.6,1.1-0.8,1.5
					c-0.1,0.4,0.2-0.4,0.8-1.4c0.3-0.5,0.7-1.1,1-1.7C229.7,29.4,230,28.8,230.3,28.4z"/>
				<path class="st1" d="M226.2,36.7c0,0.1,0.6-1.2,0.8-1.8c0.1-0.3,0.2-0.4,0,0c-0.1,0.2-0.2,0.5-0.4,0.9c-0.1,0.2-0.2,0.5-0.3,0.8
					c-0.1,0.3-0.2,0.6-0.4,1c0.2-0.6,0.4-1.3,0.7-1.8c0.3-0.6,0.5-1.2,0.7-1.6c0.4-0.8,0.6-1.1,0.1-0.1c0.9-1.8,0.9-1.9,0.9-1.8
					c0,0-0.1,0.1-0.1,0c0-0.1,0.1-0.3,0.5-0.9c-0.1,0.2-0.3,0.5-0.4,0.7c-0.1,0.2-0.2,0.5-0.3,0.7c-0.2,0.4-0.5,0.9-0.7,1.3
					c-0.2,0.4-0.4,0.9-0.6,1.3C226.6,35.8,226.4,36.3,226.2,36.7z"/>
				<path class="st1" d="M231,28c0.3-0.4,0.6-0.8,0.9-1.3c0.3-0.4,0.6-0.8,0.9-1.2c0.6-0.8,1.2-1.5,1.6-1.9
					C233.1,25.1,231.9,26.5,231,28z"/>
				<path class="st1" d="M232.2,26.6c-0.6,0.7-1.1,1.5-1.7,2.3c0.3-0.5,0.7-0.9,1-1.4C231.8,27.2,232,26.9,232.2,26.6z"/>
				<path class="st1" d="M234.7,23.4l-0.7,0.8l-0.7,0.8c0,0,0.1-0.1,0.3-0.4c0.1-0.1,0.2-0.3,0.4-0.5c0.2-0.2,0.3-0.4,0.5-0.6
					c0.8-0.8,1.9-1.8,2.9-2.7c-0.7,0.6-1.4,1.1-1.9,1.6C235.1,23,234.8,23.3,234.7,23.4z"/>
				<path class="st1" d="M237.5,20.9c0.6-0.5,1.3-1,1.9-1.4C238.8,19.9,238.2,20.4,237.5,20.9z"/>
				<path class="st1" d="M227.4,33.4c0.2-0.4,0.4-0.8,0.6-1.2c0.2-0.4,0.4-0.8,0.6-1.1c0.2-0.4,0.4-0.7,0.6-1.1
					c0.2-0.3,0.4-0.7,0.7-1c-1.4,2.1-2.7,4.3-3.6,6.6C226.7,34.9,227,34.2,227.4,33.4z"/>
				<g>
					<path class="st1" d="M302.7,30.8c0-0.2,0-0.3,0.1-0.5c0-0.1,0-0.2,0-0.3c0-0.1,0-0.3,0-0.4c0-0.5,0-0.9,0-1.3l0-0.2l0-0.1
						c0-0.2,0-0.4-0.1-0.6c-0.1-0.7-0.4-1.4-0.7-2c-0.1-0.2-0.2-0.4-0.4-0.6c0,0,0,0,0,0c-0.2-0.4-0.5-0.7-0.8-1
						c-0.2-0.2-0.4-0.4-0.6-0.6c-0.1-0.1-0.2-0.2-0.4-0.3c-0.1,0-0.1-0.1-0.2-0.1c-0.6-0.5-1.3-1-2-1.4c-0.6-0.3-1.1-0.6-1.7-0.9
						c-0.3-0.1-0.6-0.2-0.9-0.4l-0.2-0.1l0,0c0,0,0,0,0,0l-0.1-0.7l-0.2-0.9c-0.1-0.6-0.3-1.2-0.4-1.8c-0.3-1.2-0.7-2.4-1.3-3.5
						c-0.6-1.1-1.3-2.2-2.2-3.1c-0.9-0.9-1.9-1.7-2.9-2.3c-0.5-0.3-1-0.6-1.5-1c-0.5-0.3-1-0.7-1.5-0.9c-0.5-0.3-1-0.6-1.6-0.9
						c-0.3-0.1-0.5-0.3-0.8-0.4l-0.8-0.4c-4.3-2-8.8-3.4-13.4-4c-4.6-0.6-9.3-0.4-13.8,0.4c-12.7,2.1-19.8,9.3-19.8,9.3
						c3.6-2.3,8.1-3.2,8.1-3.2s-0.6,0.3-2,0.9c-0.4,0.2-2.2,1.2-2.4,1.3c-0.4,0.2-0.8,0.5-1.2,0.7c-0.4,0.2-0.7,0.4-1.1,0.6
						c-0.2,0.1-0.4,0.2-0.5,0.3c-0.2,0.1-0.3,0.2-0.5,0.3c-0.3,0.2-0.7,0.4-1,0.6c-0.6,0.5-1.3,0.9-1.8,1.3
						c-0.6,0.5-1.1,0.9-1.6,1.3c-1.8,1.5-3.5,3.3-4.9,5.1c-1.4,1.8-2.3,3.6-2.9,4.8c-1.4,2.8-2.4,5.9-3.1,9.1c0,0,0,0.1,0,0.1
						c-0.1,0.4-0.2,0.8-0.3,1.2c0,0.1,0,0.2-0.1,0.3c-0.4,2.1-0.7,4.3-0.9,6.5c-0.1,1.1-0.1,2.2-0.1,3.3c0,1.1,0,2.2,0.1,3.3
						c0.1,2.2,0.5,4.4,1,6.5c0.5,2.1,4,9.6,4,9.6c-0.1-0.4-1.1-4.6-1.2-4.9c0,0.1,0.1,0.4,0.1,0.6c-0.2-0.8-0.4-1.7-0.6-2.6
						c0,0,0-0.1,0-0.1c-0.4-1.7-0.6-3.5-0.8-5.2c-0.2-2.8-0.1-5.6,0.3-8.4c0.2-1.3,0.5-2.6,0.7-3.8c0.3-1.3,0.7-2.5,1.1-3.7
						c0.9-2.4,2.2-4.7,3.6-6.8c2.8-4.2,6.3-7.5,9.4-9.7c1.7-1.3,3.4-2.3,5.1-3.2c1.7-0.9,3.5-1.6,5.2-2.2c0.7-0.3,1.5-0.5,2.2-0.7
						c0.3-0.1,0.6-0.2,0.9-0.2c0.1,0,0.2-0.1,0.3-0.1c-0.1,0-0.1,0-0.2,0c0.3-0.1,0.7-0.2,1-0.2c-0.1,0-0.1,0-0.2,0
						c0.1,0,0.2,0,0.3-0.1c-0.5,0.2-0.9,0.3-1.3,0.5c-1.1,0.4-2,0.8-2.8,1.1c-0.8,0.3-1.4,0.6-1.8,0.8c-1.1,0.6-0.6,0.3,0.7-0.2
						c1.3-0.6,3.3-1.4,5.2-2.2c-4,1.5-8.8,3.6-12.7,6.5c-0.2,0.1-0.3,0.2-0.5,0.3c0.3-0.2,0.6-0.5,0.9-0.7c0.6-0.4,1.1-0.8,1.7-1.1
						c0.6-0.4,1.2-0.7,2-1.1c1-0.6,0.6-0.4-0.7,0.3c-0.5,0.3-1.1,0.7-1.7,1c-0.6,0.4-1.2,0.8-1.8,1.3c-1.2,0.9-2.5,1.9-3.5,3
						c-0.5,0.5-1,1-1.4,1.5c-0.4,0.5-0.7,0.9-1,1.2c-0.5,0.6-0.7,1-0.8,1.1c-0.2,0.3-0.5,0.7-0.7,1c-0.2,0.3-0.5,0.7-0.7,1
						c-0.4,0.7-0.8,1.3-1.2,2l-0.5,0.8c0.2-0.2,0.3-0.5,0.5-0.8c-0.1,0.2-0.3,0.4-0.4,0.7c-0.2,0.4-0.5,0.8-0.7,1.2l-0.7,1.3
						c-0.5,0.8-0.8,1.8-1.2,2.6c-1.4,3.5-2.2,7.2-2.3,10.1c0,0.3,0,0.5,0,0.7c0,0.2,0,0.4,0,0.5c0,0.3,0,0.5,0,0.6
						c0,0.1,0,0.1,0,0.1c0,0.5,0,0.9,0,1.4c0,0.9,0.1,1.6,0.1,2.3c0,0.6,0.1,1.1,0.1,1.4c0.5,5.6,2.8,12.1,3.3,13.4
						c0,0,0.9,2.1,1.6,3.2c0.5,0.9,4.4,7.5,5.2,9l-2-6.2c-0.3-0.8-0.6-1.8-1-2.9c0,0,0-0.1-0.1-0.2c-0.6-2.1-1.2-4.3-1.7-7
						c-0.1-0.5-0.4-2.2-0.7-3.9c0-0.2-0.1-0.5-0.1-0.7c-0.1-0.6-0.1-1.1-0.1-1.5c0-0.4,0-0.7-0.1-0.9c0-0.1,0-0.2,0-0.2
						c0-0.5,0-0.8-0.1-0.9c-0.1,1,0.2,3.7,0.4,6.7c0.4,4.7,2,9.1,2.3,10.1c0.1,0.4,0.3,1.1,0.5,1.9c0,0.1-0.3-0.4-0.5-0.9
						C225.5,58,227,50.6,228,46c5.4-23.5,23.1-27.3,31.4-28.4c3.1-0.4,1.7-0.1,0,0.1c0.4,0,0.8,0.1,1.4,0.1c0.6,0,1.3,0.1,2.5,0.2
						c1.1,0.1,2.6,0.2,4.7,0.7c2,0.4,4.6,1.1,7.6,2.7c1.7,0.9,3.3,2,4.8,3.4c0.2,0.2,0.4,0.4,0.7,0.7c0.2,0.3,0.4,0.5,0.6,0.8
						c0.2,0.3,0.4,0.5,0.7,0.9c0.3,0.3,0.6,0.6,0.9,0.9c0.2,0.1,0.3,0.3,0.5,0.4c0.1,0.1,0.1,0.1,0.3,0.2c0.1,0,0.2,0.1,0.2,0.1
						l0.2,0.1c1.5,0.5,2.9,1,4.4,1.6c1.6,0.7,3.4,1.6,5.1,3.1c0.8,0.7,1.6,1.6,2.1,2.6c0.2,0.2,0.2,0.5,0.4,0.8
						c0.1,0.3,0.2,0.5,0.3,0.8l0.1,0.3c0,0.1,0.1,0.3,0.1,0.4c0,0.3,0.1,0.7,0.1,1c0.1,0.7,0.1,1.3,0.2,1.9c0.2-0.1,0.4-0.4,0.7-0.7
						c0.2-0.2,0.5-0.5,0.7-0.7l0.7-0.7c0.1-0.1,0.2-0.3,0.3-0.4l0.3-0.4c0.5-0.6,0.9-1.3,1.3-2c0-0.1,0-0.1,0.1-0.2
						c0.2-0.4,0.4-0.8,0.6-1.3c0.4-0.9,0.8-2.1,1-3.4c0-0.1,0-0.2,0.1-0.3C302.7,31,302.7,30.9,302.7,30.8z M234.6,22.1
						C234.6,22.1,234.6,22.1,234.6,22.1C234.6,22.1,234.6,22.1,234.6,22.1C234.6,22.1,234.6,22.1,234.6,22.1z M231.3,25.9
						c-0.1,0.1-0.1,0.2-0.2,0.2C231.2,26.1,231.2,26,231.3,25.9z M223.6,43.9c0-0.2,0.1-0.4,0.1-0.6c0,0,0,0,0,0
						c0,0.2-0.1,0.5-0.1,0.7C223.6,44,223.6,44,223.6,43.9z"/>
					<path class="st1" d="M250.3,12.8c-0.2,0-0.3,0.1-0.5,0.1C250,12.9,250.2,12.8,250.3,12.8z"/>
					<path class="st1" d="M250.5,12.8c0,0-0.1,0-0.1,0C250.4,12.8,250.4,12.8,250.5,12.8z"/>
				</g>
			</g>
		</g>
	</g>
	<g>
		<path class="st2" d="M259.3,46.4c0.2,0.1,0.5-0.1,0.4,0.4c-0.1,0.4-0.3,0.7-0.5,1c-0.2,0.3-0.4,0.6-0.6,1c-0.2,0.3-0.4,0.6-0.6,1
			c-0.2,0.3-0.3,0.7-0.4,1.1l0.3,0.2c-0.3,0.6-0.5,1.2-0.7,1.8c-0.2,0.6-0.4,1.3-0.6,1.9c-0.1,0.6-0.1,1.2-0.1,1.9
			c0,0.6-0.1,1.3-0.1,1.9l0.1,1.1l0,0.5l0.1,0.4c0.1,0.5,0.1,1.3,0.2,1.8c0,0.8,0.3,2.3,0.6,3.6c0.3,1,0.5,1.4,0.9,2.3
			c1.4,3.1,3.5,6.2,6.4,8.6c2.9,2.4,7.4,3.5,10.3,4c1.2,0.2,3.8,0.3,4.5,0.4c0.5,0,0.9,0,1.6,0c2.6-0.1,5.7-1.5,7.4-2.6
			c1.5-0.9,3.8-2.8,4.7-4.2c0.4-0.5,1.2-1.9,0.9-1.5c-0.1,0.1-0.5,0.4-0.9,0.6c-0.9,0.6-3.3,1.3-5.2,1.4c-0.8,0-2.2-0.1-3-0.2
			c-1.7-0.3-3.5-0.9-5.4-1.6l-0.7-0.2c-0.2-0.1-0.4-0.2-0.6-0.3c-0.4-0.2-0.8-0.3-1.1-0.5c-0.7-0.4-3.4-2.1-4.4-3.3
			c-0.1-0.2-0.3-0.3-0.4-0.5c-0.1-0.2-0.3-0.4-0.4-0.6c-0.1-0.2-0.3-0.4-0.4-0.6c-0.1-0.2-0.3-0.4-0.4-0.7c-0.5-1-1-2.1-1.4-3.3
			c-0.4-1.2-0.8-2.6-1.1-4c-0.1-0.3-0.1-0.7-0.2-1c-0.1-0.3-0.1-0.6-0.2-0.9c0-0.3-0.1-0.6-0.1-0.9c0-0.3-0.1-0.6-0.1-0.8
			c-0.1-1.1-0.1-2.1,0-2.9c0.1-0.8,0.2-1.6,0.3-2.1l0.1-0.4c0.3-1.1,0.6-2.4,1.1-3.6c0.5-1.2,1.1-2.4,1.8-3.4
			c0.1-0.2,0.3-0.5,0.5-0.8c0.2-0.3,0.3-0.5,0.5-0.8c0.3-0.5,0.7-1,1.1-1.4c-0.4,0.3-0.9,0.6-1.2,0.8c0.9-0.8,1.8-1.6,2.1-1.9
			c1-0.8,1.2-1,1-1c-0.2,0-0.7,0.2-1.2,0.4c-0.7,0.2,0.1-0.4-1,0c0.7-0.4,1.1-0.6,1.9-0.9c0-0.1-0.6,0.2-1.1,0.4
			c-0.5,0.3-1,0.5-0.8,0.3c0.7-0.3,1.5-0.8,2.3-1c-0.2,0-0.9,0.2-1.5,0.5c-0.6,0.2-1.2,0.5-1.2,0.4c0.4-0.2,2.2-0.8,2.4-0.9
			c0,0-0.8,0.2-1.2,0.4c1.2-0.5,2.2-0.7,2.6-0.8c0.2,0,0.2-0.1,0.1-0.1c-0.2,0-0.5,0-1.2,0c0.8-0.1,2.1-0.1,2.9,0.2c0,0,0,0,0,0
			c-0.4-0.2-1.2-0.3-1.6-0.3c0.5,0,1,0.1,1.5,0.3c-0.1,0-0.2-0.1-0.2-0.1c-0.4-0.1-0.7-0.2-1.2-0.2c0.3,0,0.7,0.1,1,0.2
			c-0.2-0.1-0.5-0.2-0.9-0.2c-1.3-0.2-2.5-0.1-3.2,0c-1.4,0.2-2.7,0.6-4,1.1l-0.9,0.3c-0.3,0.1-0.6,0.2-0.9,0.4
			c-0.7,0.3-1.4,0.6-2,1C263.3,41.3,260.9,43.7,259.3,46.4z"/>
	</g>
	<g>
		<g>
			<path class="st0" d="M324.6,51.2c-0.3,0-0.6,0.1-0.9,0.4c-0.2,0.2-0.4,0.5-0.4,0.9c0,0.3,0.1,0.6,0.4,0.9
				c0.2,0.2,0.5,0.4,0.9,0.4c0.3,0,0.6-0.1,0.9-0.4c0.2-0.2,0.4-0.5,0.4-0.9c0-0.3-0.1-0.6-0.4-0.9C325.3,51.3,325,51.2,324.6,51.2z
				"/>
			<path class="st0" d="M328.8,51.2c-0.3,0-0.6,0.1-0.9,0.4c-0.2,0.2-0.4,0.5-0.4,0.9c0,0.3,0.1,0.6,0.4,0.9
				c0.2,0.2,0.5,0.4,0.9,0.4c0.3,0,0.6-0.1,0.9-0.4c0.2-0.2,0.4-0.5,0.4-0.9c0-0.3-0.1-0.6-0.4-0.9
				C329.5,51.3,329.2,51.2,328.8,51.2z"/>
			<path class="st0" d="M355.4,71.7c-0.3,0-0.6,0.1-0.9,0.4c-0.2,0.2-0.4,0.5-0.4,0.9c0,0.3,0.1,0.6,0.4,0.9
				c0.2,0.2,0.5,0.4,0.9,0.4c0.3,0,0.6-0.1,0.9-0.4c0.2-0.2,0.4-0.5,0.4-0.9c0-0.3-0.1-0.6-0.4-0.9C356,71.8,355.8,71.7,355.4,71.7z
				"/>
			<path class="st0" d="M359.2,71.7c-0.3,0-0.6,0.1-0.9,0.4c-0.2,0.2-0.4,0.5-0.4,0.9c0,0.3,0.1,0.6,0.4,0.9
				c0.2,0.2,0.5,0.4,0.9,0.4c0.3,0,0.6-0.1,0.9-0.4c0.2-0.2,0.4-0.5,0.4-0.9c0-0.3-0.1-0.6-0.4-0.9
				C359.8,71.8,359.5,71.7,359.2,71.7z"/>
			<path class="st0" d="M390.8,58c-1,0.5-1.8,1.3-2.6,2.1c-0.7,0.9-1.1,2-1.1,3.2c0,0.9,0.1,1.6,0.3,2.2c0.2,0.6,0.5,1.1,0.9,1.5
				h-2.6h0h-6.6h-8.8h-8.4c0,0,0,0,0,0v0h-1.7v-9.4h-1.9V67h-5h-6.7h-8.1h-6.7h0h-1.2c-0.3,0-0.4-0.2-0.4-0.5V55.6
				c-0.6,0.2-1.4,0.5-2.4,0.9c-1,0.4-2,1-3,1.6c-1,0.7-1.8,1.5-2.5,2.5c-0.7,1-1.1,2.2-1.1,3.5c0,0.5,0.1,1.1,0.2,1.6
				c0.1,0.6,0.4,1.1,0.9,1.6c0.4,0.5,1,0.9,1.8,1.2c0.8,0.3,1.8,0.6,3,0.6l0.1-1.9c-1.4-0.1-2.5-0.4-3.1-0.8c-0.7-0.4-1-1.2-1-2.3
				c0-0.8,0.2-1.5,0.6-2.1c0.4-0.6,0.8-1.2,1.3-1.6c0.5-0.5,1.1-0.9,1.7-1.2c0.6-0.3,1.1-0.6,1.6-0.8l0,8.1c0,0.8,0.2,1.4,0.6,1.8
				c0.4,0.4,0.9,0.6,1.5,0.6h1.5h0h6.7h8.1h6.7h8.6v0c0,0,0,0,0,0h8.4h8.8h6.6h0h10.3V56.4c-0.6,0.1-1.3,0.2-2.3,0.4
				C392.7,57,391.7,57.4,390.8,58z M394.1,66.9c-1.6,0-2.9-0.3-3.8-0.8c-0.9-0.5-1.3-1.4-1.3-2.8c0-0.7,0.2-1.3,0.5-1.8
				c0.4-0.5,0.8-1,1.3-1.3c0.5-0.4,1.1-0.7,1.7-0.9c0.6-0.2,1.1-0.4,1.5-0.6V66.9z"/>
			<path class="st0" d="M483.9,67h-1.7h-0.6c-0.3,0-0.5,0-0.7-0.1c-0.2-0.1-0.4-0.2-0.5-0.3c-0.1-0.1-0.2-0.2-0.3-0.4
				c-0.1-0.2-0.2-0.4-0.3-0.8c-0.1-0.4-0.2-0.8-0.3-1.4c-0.1-0.6-0.1-1.3-0.2-2.3c-0.3-3.8-2-5.7-5.3-5.7c-0.8,0-1.5,0.1-2.2,0.4
				c-0.7,0.3-1.2,0.6-1.7,0.9l1.2,1.5c0.9-0.6,1.8-0.9,2.7-0.9c0.4,0,0.7,0,1.1,0.1c0.4,0.1,0.7,0.2,1,0.5c0.3,0.3,0.6,0.6,0.8,1.2
				c0.2,0.5,0.4,1.2,0.4,2.1c0.1,1.3,0.2,2.3,0.3,3.1c0.1,0.8,0.3,1.4,0.6,1.9h-9.7h0h-8.4h-8.4h-6.7c0,0,0,0,0,0v0H444
				c-0.3-1.3-0.7-2.5-1.3-3.5c-0.5-1-1.2-1.8-1.9-2.5c-0.7-0.7-1.6-1.3-2.6-1.9c-1-0.5-2.1-1-3.3-1.5c0.4-0.7,0.8-1.4,1.4-2
				c0.6-0.6,1.2-1.2,1.8-1.7c0.7-0.5,1.3-1,1.9-1.4c0.6-0.4,1.2-0.7,1.7-1v1.7h1.9v-4.8c-0.6,0.2-1.4,0.6-2.5,1.2
				c-1.1,0.5-2.2,1.2-3.3,2.1c-1.1,0.8-2.2,1.8-3.2,2.9c-1,1.1-1.7,2.4-2.2,3.8l-0.3,0.9c0.6,0.1,1.3,0.3,2.1,0.5
				c0.8,0.2,1.5,0.6,2.2,1c0.7,0.5,1.3,1.1,1.7,1.8c0.5,0.8,0.7,1.7,0.7,2.9c0,0.6,0,1.1-0.1,1.6h-7.4h-6.7H418h-8.4c0,0,0,0,0,0v0
				h-1.7V56.1c-1.4,0.1-2.6,0.4-3.7,0.9c-1.1,0.4-2.1,1-2.9,1.7c-0.8,0.7-1.5,1.5-1.9,2.4c-0.5,0.9-0.7,1.9-0.7,2.9
				c0,1.5,0.6,2.7,1.7,3.6c1.1,0.9,2.8,1.3,5,1.3h0.7v0.4c0,0.7,0,1.5-0.1,2.1c0,0.7-0.2,1.3-0.4,1.8c-0.2,0.5-0.5,0.9-0.9,1.2
				c-0.4,0.3-1,0.5-1.8,0.5v1.9c1.1,0,2-0.2,2.6-0.6c0.6-0.4,1.2-0.9,1.5-1.6c0.3-0.7,0.6-1.4,0.7-2.2c0.1-0.8,0.2-1.7,0.2-2.6v-1
				h1.7v0c0,0,0,0,0,0h8.4h6.7h6.7h8.9c0.2-0.9,0.4-1.5,0.5-2.1c0.1-0.5,0.1-1,0.1-1.5c0-0.6,0-1.1-0.1-1.6c0.5,0.8,0.9,1.7,1.2,2.6
				c0.3,0.9,0.5,1.7,0.6,2.4h2.6v0c0,0,0,0,0,0h6.7h8.4h8.4h0h13.6h3.6V49.4h-1.9V67z M405.9,67h-0.7c-1.6,0-2.8-0.3-3.5-0.8
				c-0.7-0.5-1.1-1.3-1.1-2.2c0-1.3,0.5-2.4,1.5-3.4c1-1,2.3-1.7,3.9-2.1V67z"/>
			<rect x="488.8" y="49.5" class="st0" width="1.9" height="19.4"/>
			<path class="st0" d="M323.3,41.8c0.6,0.4,1.2,0.7,1.8,0.9c0.7,0.2,1.3,0.3,1.9,0.3c1.3,0,2.3-0.2,3.2-0.6
				c0.9-0.4,1.6-0.9,2.1-1.6c0.5-0.6,0.9-1.3,1.2-2c0.2-0.7,0.4-1.3,0.4-1.9l-0.5-0.8c-0.1-0.1-0.2-0.2-0.3-0.4
				c-0.1-0.1-0.3-0.2-0.5-0.4c-0.9-0.6-1.6-1.3-2.3-2.1c-0.7-0.8-1-1.7-1-2.7c0-0.4,0.1-0.9,0.2-1.4c0.1-0.5,0.3-0.9,0.6-1.3
				c0.3-0.4,0.6-0.8,0.9-1.1c0.4-0.3,0.8-0.6,1.3-0.7l3.5,11.1h1.8h0h6.7h5.8v0c0,0,0,0,0,0h17.6V24.7h-1c-1.8,0-3.4,0.2-4.7,0.6
				c-1.4,0.4-2.6,0.9-3.6,1.5c-1,0.6-1.9,1.3-2.6,2c-0.7,0.8-1.3,1.5-1.8,2.2V17.7h-1.9v17.6h-1.9c0,0,0,0,0,0v0h-1.7v-9.4h-1.9v9.4
				h-2.2h-6.7h0H337l-3.6-11.5c-1,0.1-1.9,0.4-2.7,0.8c-0.8,0.4-1.4,0.9-1.9,1.5c-0.5,0.6-0.9,1.3-1.2,2.1c-0.3,0.8-0.4,1.6-0.4,2.4
				c0,0.9,0.2,1.7,0.5,2.4c0.3,0.7,0.7,1.3,1.2,1.9c0.5,0.5,1,1,1.5,1.4c0.5,0.4,0.9,0.7,1.3,0.9l0.1,0.1c0,0.2-0.1,0.6-0.3,1
				c-0.1,0.4-0.4,0.8-0.7,1.2c-0.4,0.4-0.8,0.7-1.4,1c-0.6,0.3-1.4,0.4-2.4,0.4c-0.4,0-0.8-0.1-1.2-0.2c-0.4-0.1-0.8-0.3-1.2-0.6
				c-0.4-0.3-0.7-0.6-0.9-1c-0.2-0.4-0.4-0.9-0.4-1.5v-2.5h-1.9v2.5c0,0.9,0.2,1.7,0.5,2.4C322.3,40.9,322.7,41.4,323.3,41.8z
				 M354.7,33.2c0.4-0.9,1.1-1.8,1.9-2.7c0.9-0.9,2-1.7,3.5-2.4c1.4-0.7,3.3-1.2,5.5-1.4v8.6h-11.8C354,34.8,354.2,34.1,354.7,33.2z
				"/>
			<path class="st0" d="M329.8,45.4c-0.2-0.2-0.5-0.4-0.9-0.4c-0.3,0-0.6,0.1-0.9,0.4c-0.2,0.2-0.4,0.5-0.4,0.9
				c0,0.3,0.1,0.6,0.4,0.9c0.2,0.2,0.5,0.4,0.9,0.4c0.3,0,0.6-0.1,0.9-0.4c0.2-0.2,0.4-0.5,0.4-0.9
				C330.2,45.9,330.1,45.6,329.8,45.4z"/>
			<path class="st0" d="M325.6,45.4c-0.2-0.2-0.5-0.4-0.9-0.4c-0.3,0-0.6,0.1-0.9,0.4c-0.2,0.2-0.4,0.5-0.4,0.9
				c0,0.3,0.1,0.6,0.4,0.9c0.2,0.2,0.5,0.4,0.9,0.4c0.3,0,0.6-0.1,0.9-0.4c0.2-0.2,0.4-0.5,0.4-0.9C326,45.9,325.9,45.6,325.6,45.4z
				"/>
			<path class="st0" d="M346.3,40.4c-0.2,0.2-0.4,0.5-0.4,0.9c0,0.3,0.1,0.6,0.4,0.9c0.2,0.2,0.5,0.4,0.9,0.4c0.3,0,0.6-0.1,0.9-0.4
				c0.2-0.2,0.4-0.5,0.4-0.9c0-0.3-0.1-0.6-0.4-0.9c-0.2-0.2-0.5-0.4-0.9-0.4C346.9,40.1,346.6,40.2,346.3,40.4z"/>
			<path class="st0" d="M357.8,23.2c0.3,0,0.6-0.1,0.9-0.4c0.2-0.2,0.4-0.5,0.4-0.9c0-0.3-0.1-0.6-0.4-0.9c-0.2-0.2-0.5-0.4-0.9-0.4
				c-0.3,0-0.6,0.1-0.9,0.4c-0.2,0.2-0.4,0.5-0.4,0.9c0,0.3,0.1,0.6,0.4,0.9C357.1,23.1,357.4,23.2,357.8,23.2z"/>
			<path class="st0" d="M371.7,35.9c1.1,0.9,2.8,1.3,5,1.3h0.7v0.4c0,0.7,0,1.5-0.1,2.1c0,0.7-0.2,1.3-0.4,1.8
				c-0.2,0.5-0.5,0.9-0.9,1.2c-0.4,0.3-1,0.5-1.8,0.5v1.9c1.1,0,2-0.2,2.6-0.6c0.7-0.4,1.2-0.9,1.5-1.6c0.4-0.7,0.6-1.4,0.7-2.2
				c0.1-0.8,0.2-1.7,0.2-2.6v-1h1.7v0c0,0,0,0,0,0h6.1h0h4.1V25.9h-1.9v9.4h-2.2h0H381c0,0,0,0,0,0v0h-1.7V24.5
				c-1.4,0.1-2.6,0.4-3.7,0.9c-1.1,0.4-2.1,1-2.9,1.7c-0.8,0.7-1.5,1.5-1.9,2.4c-0.5,0.9-0.7,1.9-0.7,2.9
				C370,33.9,370.6,35.1,371.7,35.9z M373.4,28.9c1-1,2.3-1.7,3.9-2.1v8.6h-0.7c-1.6,0-2.8-0.3-3.5-0.8c-0.7-0.5-1.1-1.3-1.1-2.2
				C372,31,372.5,29.9,373.4,28.9z"/>
			<path class="st0" d="M390.3,40.1c-0.3,0-0.6,0.1-0.9,0.4c-0.2,0.2-0.4,0.5-0.4,0.9c0,0.3,0.1,0.6,0.4,0.9
				c0.2,0.2,0.5,0.4,0.9,0.4c0.3,0,0.6-0.1,0.9-0.4c0.2-0.2,0.4-0.5,0.4-0.9c0-0.3-0.1-0.6-0.4-0.9
				C390.9,40.2,390.6,40.1,390.3,40.1z"/>
			<rect x="394.4" y="19.3" class="st0" width="1.9" height="18"/>
			<path class="st0" d="M396.2,14.5c0.5,0,1,0.1,1.6,0.4l0.4-0.9c-0.7-0.3-1.3-0.4-2-0.4c-0.5,0-1,0.1-1.4,0.4
				c-0.4,0.3-0.6,0.7-0.6,1.4c0,0.3,0,0.6,0.1,0.9c0.1,0.3,0.2,0.4,0.3,0.5H393v1h5v-1H397c-0.5,0-1-0.1-1.4-0.3
				c-0.4-0.2-0.6-0.6-0.6-1c0-0.3,0.1-0.5,0.3-0.7C395.6,14.6,395.8,14.5,396.2,14.5z"/>
			<path class="st0" d="M408.6,22.1c0.3,0,0.6-0.1,0.9-0.4c0.2-0.2,0.4-0.5,0.4-0.9c0-0.3-0.1-0.6-0.4-0.9c-0.2-0.2-0.5-0.4-0.9-0.4
				c-0.3,0-0.6,0.1-0.9,0.4c-0.2,0.2-0.4,0.5-0.4,0.9c0,0.3,0.1,0.6,0.4,0.9C408,21.9,408.3,22.1,408.6,22.1z"/>
			<path class="st0" d="M412.8,22.1c0.3,0,0.6-0.1,0.9-0.4c0.2-0.2,0.4-0.5,0.4-0.9c0-0.3-0.1-0.6-0.4-0.9c-0.2-0.2-0.5-0.4-0.9-0.4
				c-0.3,0-0.6,0.1-0.9,0.4c-0.2,0.2-0.4,0.5-0.4,0.9c0,0.3,0.1,0.6,0.4,0.9C412.1,21.9,412.4,22.1,412.8,22.1z"/>
			<path class="st0" d="M406.2,35.7c0.4,0.5,1,0.9,1.8,1.2c0.8,0.3,1.8,0.6,3.1,0.6l0.1-1.9c-1.4-0.1-2.5-0.4-3.1-0.8
				c-0.7-0.4-1-1.2-1-2.3c0-0.8,0.2-1.5,0.6-2.1c0.4-0.6,0.8-1.2,1.3-1.6c0.5-0.5,1.1-0.9,1.7-1.2c0.6-0.3,1.1-0.6,1.6-0.8l0,8.1
				c0,0.8,0.2,1.4,0.6,1.8c0.4,0.4,0.9,0.6,1.5,0.6h1.5h0h6.7h8.6v0c0,0,0,0,0,0h12v0c0,0,0,0,0,0h6.9V25.9h-1.9v9.4h-5c0,0,0,0,0,0
				v0h-1.7V24.7c-0.6,0-1.3,0.2-2.3,0.4c-1,0.2-2,0.6-3,1.2c-1,0.5-1.8,1.3-2.6,2.1c-0.7,0.9-1.1,2-1.1,3.2c0,0.9,0.1,1.6,0.3,2.2
				c0.2,0.6,0.5,1.1,0.9,1.5h-2.6c0,0,0,0,0,0v0h-1.7v-9.4h-1.9v9.4h-5h-6.7h0h-1.2c-0.3,0-0.4-0.2-0.4-0.5V23.9
				c-0.6,0.2-1.4,0.5-2.4,0.9c-1,0.4-2,1-3,1.6c-1,0.7-1.8,1.5-2.5,2.5c-0.7,1-1.1,2.2-1.1,3.5c0,0.5,0.1,1.1,0.2,1.6
				C405.4,34.7,405.7,35.2,406.2,35.7z M434.9,29.9c0.4-0.5,0.8-1,1.3-1.3c0.5-0.4,1.1-0.7,1.7-0.9c0.6-0.2,1.1-0.4,1.5-0.6v8.2
				c-1.6,0-2.9-0.3-3.8-0.8c-0.9-0.5-1.3-1.4-1.3-2.8C434.4,31,434.6,30.4,434.9,29.9z"/>
			<path class="st0" d="M423.7,40.4c-0.2,0.2-0.4,0.5-0.4,0.9c0,0.3,0.1,0.6,0.4,0.9c0.2,0.2,0.5,0.4,0.9,0.4c0.3,0,0.6-0.1,0.9-0.4
				c0.2-0.2,0.4-0.5,0.4-0.9c0-0.3-0.1-0.6-0.4-0.9c-0.2-0.2-0.5-0.4-0.9-0.4C424.3,40,424,40.1,423.7,40.4z"/>
			<path class="st0" d="M427.5,40.4c-0.2,0.2-0.4,0.5-0.4,0.9c0,0.3,0.1,0.6,0.4,0.9c0.2,0.2,0.5,0.4,0.9,0.4c0.3,0,0.6-0.1,0.9-0.4
				c0.2-0.2,0.4-0.5,0.4-0.9c0-0.3-0.1-0.6-0.4-0.9c-0.2-0.2-0.5-0.4-0.9-0.4C428,40,427.7,40.1,427.5,40.4z"/>
			<path class="st0" d="M444.4,40.4c-0.2,0.2-0.4,0.5-0.4,0.9c0,0.3,0.1,0.6,0.4,0.9c0.2,0.2,0.5,0.4,0.9,0.4c0.3,0,0.6-0.1,0.9-0.4
				c0.2-0.2,0.4-0.5,0.4-0.9c0-0.3-0.1-0.6-0.4-0.9c-0.2-0.2-0.5-0.4-0.9-0.4C444.9,40,444.6,40.1,444.4,40.4z"/>
			<path class="st0" d="M449.1,40c-0.3,0-0.6,0.1-0.9,0.4c-0.2,0.2-0.4,0.5-0.4,0.9c0,0.3,0.1,0.6,0.4,0.9c0.2,0.2,0.5,0.4,0.9,0.4
				c0.3,0,0.6-0.1,0.9-0.4c0.2-0.2,0.4-0.5,0.4-0.9c0-0.3-0.1-0.6-0.4-0.9C449.7,40.1,449.4,40,449.1,40z"/>
			<path class="st0" d="M462.5,36.5c0.2-0.4,0.3-0.8,0.5-1.3c0.2-0.5,0.3-1,0.4-1.7c0.1-0.6,0.2-1.3,0.2-1.9c0-0.9-0.1-1.8-0.4-2.6
				c-0.2-0.9-0.6-1.6-1.1-2.3c-0.5-0.7-1.1-1.2-1.8-1.6c-0.7-0.4-1.6-0.6-2.6-0.6c-1.1,0-2,0.2-2.7,0.6s-1.4,0.8-1.9,1.2l1.1,1.5
				c0.7-0.5,1.3-0.8,1.9-1c0.5-0.2,1.1-0.3,1.6-0.3c0.6,0,1.2,0.1,1.7,0.4c0.5,0.3,0.9,0.7,1.3,1.1c0.3,0.5,0.6,1,0.8,1.6
				c0.2,0.6,0.3,1.3,0.3,2c0,0.9-0.1,1.6-0.3,2.3c-0.2,0.6-0.3,1.1-0.5,1.5h-8v1.9h9.2C462.1,37.1,462.3,36.8,462.5,36.5z"/>
			<path class="st0" d="M485.6,37.3v-5.4c0-2.4-0.5-4.1-1.6-5.3c-1.1-1.1-2.6-1.7-4.6-1.7c-0.2,0-0.4,0-0.6,0c-0.2,0-0.4,0-0.6,0.1
				c0.4-0.6,0.8-1.2,1.3-1.7c0.5-0.5,1-1,1.5-1.4c0.5-0.4,1-0.8,1.5-1.2c0.5-0.3,1-0.6,1.4-0.9l0,1.7h1.9v-4.9
				c-1.1,0.5-2.2,1.1-3.3,1.7c-1.1,0.6-2.1,1.3-3,2.1c-0.9,0.8-1.7,1.7-2.4,2.6c-0.7,1-1.2,2.1-1.6,3.3l-0.4,1.5
				c1-0.4,1.9-0.6,2.5-0.8c0.6-0.2,1.3-0.3,1.9-0.3c1.4,0,2.5,0.4,3.2,1.1c0.7,0.8,1.1,2.1,1.1,3.9v3.5h-9.7h-5.8V17.8h-1.9v19.5
				h7.7H485.6z"/>
			<path class="st0" d="M489.9,16.4c-0.4-0.2-0.6-0.6-0.6-1c0-0.3,0.1-0.5,0.3-0.7c0.2-0.1,0.5-0.2,0.8-0.2c0.5,0,1,0.1,1.6,0.4
				l0.4-0.9c-0.7-0.3-1.3-0.4-2-0.4c-0.5,0-1,0.1-1.4,0.4c-0.4,0.3-0.6,0.7-0.6,1.4c0,0.3,0,0.6,0.1,0.9c0.1,0.3,0.2,0.4,0.3,0.5
				h-1.6v1h5v-1h-0.9C490.8,16.7,490.3,16.6,489.9,16.4z"/>
			<rect x="488.8" y="19.3" class="st0" width="1.9" height="18"/>
		</g>
	</g>
</g>
</svg>
